<svg xmlns="http://www.w3.org/2000/svg" width="500" height="360" viewBox="0.948 50.965 493.178 236.474"><g id="sn30pro" fill="none" stroke="#111" stroke-linejoin="bevel" transform="translate(-18416 -15880)"><path id="路径_2519" stroke-width="4" d="m579.974 233.239 1.277.711 1.3.672 1.121.525" data-name="路径 2519" transform="translate(17987.648 15920.959)"/><path id="直线_2789" stroke-width="3" d="M0 .004.008 0" data-name="直线 2789" transform="translate(18830.771 16028.805)"/><path id="直线_2790" stroke-width="3" d="M0 .002.003 0" data-name="直线 2790" transform="translate(18784.539 16066.608)"/><path id="直线_2791" stroke-width="4" d="M0 .065.108 0" data-name="直线 2791" transform="translate(18473.713 15961.527)"/><path id="直线_2792" stroke-width="4" d="M0 6.816.092 0" data-name="直线 2792" transform="translate(18471.305 15964.522)"/><path id="路径_2428" stroke-width="3" d="M545.628 221.543v-.421l.015-.419.027-.415.037-.413.046-.409.057-.408.066-.4.076-.4.086-.4.1-.393.1-.39.114-.386.123-.381.133-.379.142-.373.149-.369.159-.365.168-.359.175-.356.183-.35.192-.344.2-.341.209-.335.214-.329.224-.324.231-.318.237-.312.247-.306.252-.3.259-.293.266-.29.274-.28.28-.276.286-.267.293-.262.3-.253.306-.247.31-.239.318-.234.323-.224.328-.219.334-.209.339-.2.345-.192.35-.186.354-.177.36-.169.365-.16.368-.152.374-.142.377-.135.383-.123.385-.116.391-.107.393-.1.4-.087.4-.077.406-.068.408-.057.411-.047.415-.036.416-.027.421-.016.423-.006.423.006.42.016.417.027.414.036.413.047.409.057.4.068.4.077.4.087.394.1.39.106.387.115.382.125.377.135.375.142.367.15.365.161.359.169.354.176.35.186.345.194.339.2.333.209.329.217.323.225.317.234.311.239.3.247.3.253.293.262.287.267.279.276.274.28.266.29.259.294.254.3.245.306.238.312.23.319.224.324.215.328.208.335.2.341.193.345.183.35.175.355.168.361.158.364.149.369.141.373.133.377.124.383.114.385.1.389.1.393.085.4.076.4.066.4.057.408.046.409.036.413.027.415.015.419.006.421" data-name="路径 2428" transform="translate(17960.637 15898.88)"/><path id="路径_2498" stroke-width="3" d="m578.277 214.328-.006.42-.015.419-.027.414-.035.413-.048.409-.057.407-.066.4-.076.4-.085.4-.095.391-.105.391-.114.385-.124.381-.132.378-.141.373-.151.369-.158.364-.167.361-.175.355-.185.35-.191.345-.2.341-.209.335-.215.329-.223.325-.231.319-.237.314-.245.3-.254.3-.259.295-.265.289-.273.28-.281.276-.286.269-.292.262-.3.254-.306.248-.31.24-.318.233-.322.225-.328.217-.334.21-.339.2-.344.194-.35.186-.354.176-.359.17-.365.16-.369.151-.374.143-.376.134-.383.124-.387.116-.39.108-.394.1-.4.087-.4.078-.4.067-.409.057-.412.047-.416.036-.418.028-.42.016-.423.006-.423-.006-.421-.016-.418-.028-.415-.036-.411-.047-.408-.057-.406-.067-.4-.078-.4-.087-.4-.1-.389-.106-.386-.116-.383-.124-.377-.134-.374-.143-.369-.151-.365-.162-.359-.168-.355-.178-.35-.185-.344-.195-.339-.2-.334-.21-.328-.217-.323-.225-.316-.234-.311-.24-.3-.246-.3-.255-.293-.262-.287-.269-.279-.275-.273-.281-.267-.288-.259-.295-.253-.3-.245-.306-.237-.312-.231-.319-.223-.324-.215-.33-.208-.335-.2-.34-.191-.344-.185-.35-.175-.356-.167-.361-.158-.365-.149-.369-.141-.373-.133-.377-.122-.383-.115-.384-.1-.39-.095-.393-.086-.4-.077-.4-.065-.4-.057-.407-.047-.408-.036-.413-.027-.416-.015-.417v-.42" data-name="路径 2498" transform="translate(17960.637 15906.051)"/><path id="路径_2429" stroke-width="3" d="M715.458 177.3h.359l.361.012.365.02.367.029.37.038.371.046.374.055.374.064.376.075.377.085.377.093.376.1.376.112.377.123.376.132.373.144.372.152.37.163.368.172.365.184.361.193.358.2.353.212.348.222.345.23.339.241.333.249.327.26.321.268.314.275.306.285.3.291.291.3.285.306.276.314.267.321.26.326.249.334.241.338.231.345.222.349.212.354.2.356.193.361.183.365.172.367.165.371.152.372.143.373.132.376.124.376.113.377.1.377.093.377.085.375.073.376.065.376.055.373.048.372.036.369.03.368.021.363.012.362v.718l-.012.362-.021.363-.03.368-.036.369-.048.372-.055.374-.065.374-.073.376-.085.376-.093.377-.1.377-.113.377-.124.377-.132.375-.143.373-.152.372-.165.37-.172.368-.183.365-.193.361-.2.358-.212.353-.222.348-.231.345-.241.338-.249.334-.26.326-.267.32-.276.315-.285.307-.291.3-.3.292-.306.285-.314.276-.321.267-.327.26-.333.249-.339.241-.345.231-.348.222-.353.211-.358.2-.361.193-.365.183-.368.172-.37.163-.372.153-.373.143-.376.132-.377.124-.376.112-.376.1-.377.092-.377.085-.376.074-.374.064-.374.055-.371.046-.37.038-.367.028-.365.02-.361.012h-.359" data-name="路径 2429" transform="translate(18094.221 15876.949)"/><path id="路径_2430" stroke-width="3" d="M722.585 202.5h-.358l-.362-.012-.365-.02-.366-.028-.37-.038-.371-.046-.373-.055-.375-.064-.375-.074-.377-.085-.376-.092-.378-.1-.376-.112-.377-.124-.374-.132-.374-.143-.372-.153-.37-.163-.368-.172-.365-.183-.362-.193-.358-.2-.353-.211-.349-.222-.344-.231-.339-.241-.333-.249-.328-.26-.32-.267-.315-.276-.307-.285-.3-.292-.291-.3-.285-.307-.276-.315-.267-.32-.259-.326-.25-.334-.24-.338-.233-.345-.222-.348-.212-.353-.2-.358-.193-.361-.183-.365-.172-.368-.163-.37-.153-.372-.143-.373-.133-.375-.123-.377-.113-.377-.1-.377-.093-.377-.083-.376-.074-.376-.066-.374-.056-.374-.046-.372-.038-.369-.03-.368-.021-.363-.012-.362v-.358" data-name="路径 2430" transform="translate(18087.109 15884.066)"/><path id="路径_2431" stroke-width="3" d="M706.418 193.463v-.36l.012-.362.021-.363.03-.368.038-.369.046-.372.056-.373.066-.376.074-.376.083-.375.093-.377.1-.377.113-.377.123-.376.133-.376.143-.373.153-.372.163-.371.172-.367.183-.365.193-.361.2-.356.212-.354.222-.349.233-.345.24-.338.25-.334.259-.326.267-.321.276-.314.285-.306.291-.3.3-.291.307-.285.315-.275.32-.268.328-.26.333-.249.339-.241.344-.23.349-.222.353-.212.358-.2.362-.193.365-.184.368-.172.37-.163.372-.152.374-.144.374-.132.377-.123.376-.112.378-.1.376-.093.377-.085.375-.075.375-.064.373-.055.371-.046.37-.038.366-.029.365-.02.362-.012h.358" data-name="路径 2431" transform="translate(18087.109 15876.959)"/><path id="路径_2520" stroke-width="4" d="m583.5 233.105-5.229 2.067-4.348 1.649" data-name="路径 2520" transform="translate(17982.896 15920.891)"/><path id="路径_2521" stroke-width="4" d="m608.695 238.227-2.386.837-2.409.769-2.432.712-2.451.646-2.352.549-2.366.482-2.381.419-2.391.35-2.408.283-2.415.218-2.418.15-2.423.087-2.559.022-2.559-.048-2.556-.117-2.553-.183-2.549-.251-2.543-.318-2.533-.381-2.522-.447-2.511-.511-2.5-.574-2.478-.637-2.464-.7-2.555-.8-2.531-.864-2.509-.932-2.484-1-2.456-1.062-2.428-1.124-2.4-1.188-2.366-1.249" data-name="路径 2521" transform="translate(17948.254 15919.484)"/><path id="路径_2432" stroke-width="4" d="m553.89 269.762-2.89-1.638-2.846-1.731-2.793-1.821-2.74-1.91-2.682-2-2.62-2.081-2.557-2.165-2.491-2.248-2.42-2.326-2.348-2.4-2.273-2.478-2.194-2.552-2.117-2.619-2.032-2.688-1.947-2.752-1.859-2.814-1.771-2.874-1.676-2.932-1.58-2.983-1.481-3.035-1.381-3.081-1.276-3.125-1.17-3.167-1.061-3.2-.946-3.236-.835-3.267-.72-3.292-.608-3.312-.494-3.328-.381-3.341-.272-3.349-.092-1.676-.062-1.674" data-name="路径 2432" transform="translate(17924.178 15881.092)"/><path id="路径_2433" stroke-width="4" d="m499.286 194.054-.031-1.684v-1.665l.086-3.283.182-3.227.264-3.181.333-3.154.416-3.163.5-3.2.587-3.275" data-name="路径 2433" transform="translate(17924.164 15869.811)"/><path id="路径_2434" stroke-width="4" d="m500.577 204.88.459-2.168.506-2.157.554-2.144.6-2.133.645-2.117.691-2.1.735-2.088.781-2.073.823-2.055.867-2.036.909-2.019.952-2 .993-1.977 1.036-1.958 1.076-1.934 1.117-1.911 1.155-1.888 1.2-1.863 1.234-1.837 1.272-1.812 1.309-1.784 1.347-1.755 1.385-1.727 1.42-1.7 1.455-1.666 1.492-1.634 1.526-1.6 1.56-1.568 1.594-1.536 1.628-1.5 1.661-1.465 1.691-1.427 1.724-1.389 1.754-1.351 1.784-1.312 1.812-1.272 1.84-1.233 1.866-1.193 1.891-1.154 1.917-1.111 1.94-1.072 1.963-1.029 1.984-.986 2-.945 2.026-.9 2.042-.86 2.062-.816 2.079-.773 2.095-.729 2.109-.684 2.125-.64 2.137-.594 2.15-.55 2.159-.5 2.172-.457 2.178-.411 2.19-.364 2.195-.316 2.2-.269 2.209-.221 2.211-.172 2.216-.123 2.218-.073 2.219-.026" data-name="路径 2434" transform="translate(17925.205 15833.246)"/><path id="直线_2793" stroke-width="4" d="M0 0h278.425" data-name="直线 2793" transform="translate(18526.922 15954.96)"/><path id="直线_2706" stroke-width="3" d="M0 0h.003" data-name="直线 2706" transform="translate(18834.762 15995.239)"/><path id="直线_2707" stroke-width="3" d="M0 0h.004" data-name="直线 2707" transform="translate(18784.547 15995.239)"/><path id="路径_2275" stroke-width="3" d="M722.584 137.383h.359l.361.013.365.02.367.029.37.039.372.045.372.055.376.066.375.075.376.082.379.093.377.1.374.111.377.123.377.132.372.143.372.152.37.163.367.173.365.182.361.191.359.2.352.215.349.22.345.232.34.24.333.25.326.259.32.266.317.275.306.284.3.291.292.3.285.309.275.313.266.322.261.325.249.333.241.34.231.343.223.347.211.356.2.356.193.361.184.365.172.367.165.372.152.37.143.376.132.376.123.376.113.377.1.376.093.379.084.376.073.376.064.374.056.374.048.372.036.368.03.367.02.367.014.361v.717l-.014.361-.02.365-.03.368-.036.368-.048.372-.056.374-.064.374-.073.376-.084.377-.093.376-.1.377-.113.377-.123.376-.132.376-.143.374-.152.372-.165.37-.172.367-.184.365-.193.361-.2.358-.211.352-.223.35-.231.343-.241.34-.249.331-.261.327-.266.322-.275.313-.285.308-.292.3-.3.291-.306.284-.317.275-.32.266-.326.259-.333.25-.34.24-.345.233-.349.22-.352.213-.359.2-.361.19-.365.184-.367.172-.37.163-.372.154-.372.141-.377.134-.377.122-.374.113-.377.1-.379.093-.376.084-.375.073-.376.066-.372.055-.372.045-.37.039-.367.029-.365.02-.361.013h-.359m0 0h-.358l-.363-.013-.365-.02-.367-.029-.37-.039-.372-.045-.372-.055-.376-.066-.374-.073-.377-.084-.377-.093-.377-.1-.376-.113-.377-.122-.375-.134-.374-.141-.372-.154-.368-.163-.368-.172-.365-.184-.361-.19-.36-.2-.352-.213-.347-.22-.347-.233-.338-.24-.333-.25-.327-.259-.322-.266-.313-.275-.308-.284-.3-.291-.291-.3-.284-.308-.275-.313-.267-.322-.259-.327-.25-.331-.24-.34-.233-.343-.222-.35-.211-.352-.2-.358-.193-.361-.184-.365-.172-.367-.163-.37-.152-.372-.143-.374-.134-.376-.122-.376-.113-.377-.105-.377-.091-.376-.084-.377-.073-.376-.066-.374-.056-.374-.047-.372-.037-.368-.031-.368-.02-.365-.012-.361v-.359m0 0 .011-.565.029-.562.05-.563.068-.558.09-.558.107-.554.127-.549.147-.545.166-.54.182-.533.2-.526.222-.52.238-.51.256-.5.274-.494.29-.485.308-.472.325-.461.338-.452.356-.438.37-.426.385-.411.4-.4.415-.384.424-.37.44-.354.449-.338.463-.325.474-.306.481-.292.5-.274.5-.256.508-.24.52-.218.528-.2.533-.182.54-.166.546-.145.549-.127.554-.107.558-.088.56-.07.562-.048.562-.029.565-.009" data-name="路径 2275" transform="translate(18087.098 15845.56)"/><path id="路径_2435" stroke-width="3" d="m748.259 157.342-.564.01-.564.03-.562.049-.56.068-.558.089-.553.107-.549.127-.545.146-.539.165-.534.182-.527.2-.519.22-.511.239-.5.256-.493.273-.485.292-.472.306-.462.323-.451.34-.438.354-.426.371-.412.385-.4.4-.385.414-.37.424-.356.44-.339.45-.323.462-.307.473-.291.484-.274.493-.257.5-.239.511-.22.519-.2.527-.183.533-.166.54-.144.543-.128.551-.108.554-.089.557-.068.56-.05.562-.03.563-.009.564" data-name="路径 2435" transform="translate(18107.254 15861.26)"/><path id="路径_2436" stroke-width="3" d="M732.093 166.379v.358l.012.362.021.365.028.367.038.369.047.371.057.374.064.374.075.376.084.376.093.377.1.377.113.377.121.375.134.377.142.372.153.373.163.369.174.368.182.365.193.361.2.358.213.353.223.349.231.344.241.34.251.332.258.327.268.322.276.313.283.306.293.3.3.291.307.285.313.275.322.268.327.259.333.25.339.24.344.232.349.221.353.212.357.2.363.193.363.183.37.173.368.163.373.153.373.142.376.133.376.122.377.113.377.1.377.093.375.083.376.074.375.065.374.054.37.048.37.036.369.028.363.022.362.012h.718l.362-.012.365-.022.367-.028.37-.036.37-.048.373-.054.376-.065.375-.074.376-.083.377-.093.377-.1.377-.113.376-.122.375-.133.374-.142.373-.153.37-.163.368-.173.364-.183.363-.193.356-.2.354-.212.348-.221.345-.232.337-.24.334-.25.327-.259.321-.268.314-.275.306-.285.3-.291.292-.3.284-.306.277-.313.267-.322.258-.327.251-.332.239-.34.232-.344.221-.349.212-.353.2-.358.193-.361.183-.365.172-.368.163-.369.153-.373.143-.372.133-.377.123-.375.112-.377.1-.377.094-.377.084-.376.075-.376.065-.374.056-.374.046-.371.037-.369.029-.367.02-.365.012-.362v-.358" data-name="路径 2436" transform="translate(18107.254 15868.367)"/><path id="路径_2437" stroke-width="3" d="m757.3 173.5-.009-.564-.03-.563-.049-.562-.069-.56-.088-.557-.109-.554-.126-.551-.147-.543-.165-.54-.183-.533-.2-.527-.222-.519-.239-.511-.255-.5-.275-.493-.29-.484-.306-.473-.328-.466-.339-.45-.355-.44-.37-.424-.385-.414-.4-.4-.413-.385-.426-.371-.438-.354-.451-.34-.462-.323-.474-.306-.483-.292-.494-.273-.5-.256-.511-.239-.52-.22-.526-.2-.533-.182-.54-.165-.545-.146-.549-.127-.553-.107-.558-.089-.56-.068-.562-.049-.562-.03-.565-.01" data-name="路径 2437" transform="translate(18114.379 15861.26)"/><path id="路径_2279" stroke-width="3" d="M680.744 166.379v.358l.013.362.02.365.028.367.038.369.046.371.057.374.064.374.075.376.084.376.094.377.1.377.112.377.122.375.133.377.143.372.154.373.162.369.172.368.184.365.193.361.2.358.213.353.223.349.23.344.24.34.251.332.258.327.267.322.277.313.283.306.293.3.3.291.307.285.314.275.322.268.327.259.333.25.338.24.345.232.348.221.354.212.356.2.362.193.364.183.368.173.37.163.373.153.373.142.376.133.375.122.377.113.377.1.377.093.377.083.375.074.376.065.373.054.37.048.37.036.368.028.364.022.363.012h.717l.362-.012.376-.017.366-.028.37-.036.37-.048.374-.054.376-.065.375-.074.376-.083.377-.093.377-.1.377-.113.375-.122.376-.133.375-.142.371-.153.371-.163.368-.173.363-.183.363-.193.357-.2.354-.212.349-.221.344-.232.339-.24.334-.25.327-.259.321-.268.313-.275.307-.285.3-.291.291-.3.283-.306.277-.313.267-.322.258-.327.251-.332.241-.34.23-.344.223-.349.212-.353.2-.358.193-.361.183-.365.172-.368.163-.369.153-.373.142-.372.133-.377.122-.375.112-.377.1-.377.093-.377.084-.376.074-.376.065-.374.056-.374.046-.371.037-.369.029-.367.021-.365.012-.362v-.358" data-name="路径 2279" transform="translate(18066.904 15868.367)"/><path id="路径_2280" stroke-width="3" d="m705.95 173.5-.01-.564-.03-.563-.049-.562-.069-.56-.088-.557-.109-.554-.126-.551-.146-.543-.166-.54-.184-.533-.2-.527-.221-.519-.239-.511-.256-.5-.274-.493-.291-.484-.307-.473-.323-.462-.34-.45-.355-.44-.37-.424-.385-.414-.4-.4-.413-.385-.426-.371-.438-.354-.45-.34-.463-.323-.473-.306-.483-.292-.494-.273-.5-.256-.511-.239-.519-.22-.527-.2-.533-.182-.54-.165-.545-.146-.549-.127-.553-.107-.558-.089-.561-.068-.561-.049-.564-.03-.564-.01" data-name="路径 2280" transform="translate(18074.027 15861.26)"/><path id="路径_2281" stroke-width="3" d="m696.911 157.342-.564.01-.564.03-.561.049-.561.068-.558.089-.553.107-.55.127-.545.146-.538.165-.535.182-.526.2-.52.22-.511.239-.5.256-.492.273-.484.292-.474.306-.461.323-.452.34-.438.354-.426.371-.413.385-.4.4-.385.414-.37.424-.355.44-.339.45-.324.462-.307.473-.29.484-.275.493-.256.5-.239.511-.22.519-.2.527-.183.533-.166.54-.145.543-.128.551-.108.554-.088.557-.068.56-.051.562-.03.563-.01.564" data-name="路径 2281" transform="translate(18066.916 15861.26)"/><path id="路径_2438" stroke-width="3" d="m657.992 223.676.007-.693.02-.695.034-.693.051-.693.064-.692.08-.691.093-.687.109-.685.146-.811.168-.809.187-.8.207-.8.227-.793.246-.788.267-.782.285-.775.306-.766.324-.758.343-.752.362-.744.381-.733.4-.723.417-.713.433-.7.45-.69.469-.68.486-.669.5-.656.518-.643.535-.629.55-.616.564-.6.579-.586.595-.574.609-.558.624-.543.637-.528.648-.511.662-.494.673-.477.685-.462.7-.443.707-.426.718-.408.728-.391.74-.372.747-.354.754-.333.762-.317.771-.3.78-.278.785-.258.791-.237.8-.219.8-.2.806-.178.81-.157.816-.137.818-.118.822-.1.822-.076.825-.055.826-.035.825-.014.826.008.825.026.825.048.825.067.822.089.819.109.815.13.813.15.808.171.8.189.8.212.793.231.788.249.781.27.774.29.765.307.759.328.748.346.742.365.733.384.723.4.711.42.7.437.688.454.677.47.666.489.654.5.642.521.628.539.614.552.6.567.586.582.57.6.556.61.54.625.526.638.508.651.492.663.475.676.459.686.439.7.423.709.406.719.388.729.368.739.352.749.331.756.311.763.293.77.275.779.253.787.235.792.215.8.194.8.176.805.154.81.121.723.1.726.088.729.071.73.056.731.039.732.024.732.007.732" data-name="路径 2438" transform="translate(18048.988 15887.389)"/><path id="路径_2439" stroke-width="3" d="m724.085 209.087-.009.693-.024.692-.038.691-.052.692-.068.689-.082.689-.1.686-.11.684-.149.809-.17.805-.19.8-.21.8-.229.791-.25.787-.268.779-.288.771-.307.763-.325.757-.346.749-.363.739-.381.731-.4.72-.418.71-.433.7-.453.686-.469.677-.487.666-.5.652-.519.64-.535.628-.55.614-.565.6-.579.584-.594.57-.61.557-.622.54-.635.525-.65.509-.659.49-.673.475-.684.459-.694.44-.707.425-.718.405-.727.389-.736.369-.745.351-.753.333-.759.314-.769.295-.778.276-.782.256-.79.237-.795.216-.8.2-.8.177-.808.156-.811.137-.816.117-.818.1-.821.075-.822.055-.824.034-.822.015-.824-.007-.822-.027-.823-.048-.821-.068-.819-.088-.818-.108-.812-.129-.81-.149-.8-.17-.8-.188-.8-.21-.792-.23-.786-.248-.78-.268-.772-.288-.762-.306-.757-.325-.748-.344-.739-.364-.731-.381-.722-.4-.71-.417-.7-.435-.687-.452-.677-.468-.665-.485-.654-.5-.64-.519-.627-.534-.614-.55-.6-.565-.584-.578-.57-.594-.56-.615-.541-.622-.525-.636-.508-.649-.493-.66-.476-.672-.459-.683-.442-.7-.423-.706-.407-.717-.389-.727-.37-.736-.353-.745-.332-.754-.315-.761-.294-.768-.275-.776-.258-.784-.236-.789-.216-.8-.2-.8-.178-.8-.157-.809-.122-.72-.107-.724-.092-.726-.074-.728-.058-.73-.042-.731-.025-.731-.009-.732" data-name="路径 2439" transform="translate(18048.988 15901.92)"/><path id="路径_2510" stroke-width="4" d="m654.484 225.108-.05-.078-.053-.076-.054-.073-.057-.071-.061-.07-.062-.067-.065-.065-.066-.064-.069-.061-.071-.058-.072-.056-.076-.054-.076-.05-.079-.049-.078-.045-.082-.041-.083-.041-.083-.036-.085-.035-.088-.031-.087-.028-.088-.026-.089-.021-.089-.02-.091-.016-.091-.013-.091-.009-.092-.007h-.183" data-name="路径 2510" transform="translate(18044.451 15913.551)"/><path id="路径_2511" stroke-width="4" d="M652.177 223.842v.017" data-name="路径 2511" transform="translate(18044.447 15913.551)"/><path id="路径_2440" stroke-width="3" d="m616.628 192.249-.483-.007-.479-.018-.477-.031-.473-.043-.469-.052-.466-.065-.463-.078-.459-.088-.454-.1-.45-.109-.447-.121-.441-.132-.438-.141-.431-.154-.427-.161-.422-.173-.418-.183-.411-.193-.406-.2-.4-.212-.395-.221-.389-.229-.382-.239-.377-.248-.369-.256-.365-.265-.356-.274-.35-.282-.343-.288-.335-.3-.33-.307-.321-.314-.313-.322-.306-.328-.3-.335-.29-.343-.282-.35-.273-.356-.265-.364-.258-.369-.246-.377-.239-.383-.23-.388-.22-.4-.211-.4-.2-.407-.193-.411-.182-.417-.172-.421-.163-.428-.152-.432-.142-.436-.131-.441-.121-.447-.11-.451-.1-.454-.088-.458-.076-.461-.065-.466-.052-.469-.043-.474-.03-.476-.017-.48v-.482l.006-.482.018-.481.031-.476.042-.473.054-.47.066-.465.077-.463.088-.459.1-.454.109-.451.12-.447.132-.44.143-.437.152-.431.163-.427.172-.422.182-.417.191-.41.2-.407.211-.4.22-.395.229-.389.239-.382.248-.375.257-.371.264-.364.273-.355.282-.35.291-.343.3-.335.3-.329.314-.319.321-.313.329-.307.335-.3.343-.29.35-.282.356-.273.363-.265.37-.256.376-.248.383-.239.387-.229.4-.22.4-.211.406-.2.412-.193.417-.183.422-.172.427-.163.433-.151.437-.141.442-.131.447-.122.45-.108.455-.1.458-.088.463-.077.467-.066.471-.053.473-.042.478-.029.48-.02h.483" data-name="路径 2440" transform="translate(18001.771 15859.297)"/><path id="直线_2794" stroke-width="3" d="M0 0h73.814" data-name="直线 2794" transform="translate(18618.357 16014.167)"/><path id="路径_2441" stroke-width="3" d="M649.659 154.857h.482l.481.02.476.029.472.042.471.055.465.064.462.077.459.088.454.1.451.108.447.122.442.131.437.142.433.153.426.161.423.172.416.183.412.193.406.2.4.209.4.221.388.23.382.239.377.247.37.256.364.265.356.275.35.28.343.291.337.3.328.306.322.313.313.321.307.329.3.335.291.343.282.349.274.356.265.364.257.369.246.375.239.383.23.388.221.395.212.4.2.406.193.41.182.417.174.422.161.427.153.431.142.437.132.442.121.445.109.451.1.454.088.459.077.461.064.467.055.47.041.473.031.476.017.479.008.484-.008.482-.019.479-.032.476-.042.473-.054.471-.065.465-.078.462-.086.458-.1.454-.112.451-.12.447-.131.441-.143.438-.151.431-.164.428-.172.421-.182.417-.193.413-.2.406-.209.4-.222.393-.229.389-.239.383-.247.376-.256.37-.266.364-.273.356-.281.351-.29.343-.3.335-.3.328-.314.321-.32.313-.328.306-.337.3-.342.29-.35.28-.358.274-.362.266-.371.257-.375.246-.383.239-.389.231-.4.219-.4.212-.406.2-.411.192-.418.183-.422.173-.428.163-.431.152-.439.143-.44.13-.447.121-.451.109-.456.1-.458.088-.462.078-.467.065-.469.052-.474.043-.477.031-.48.018-.484.007" data-name="路径 2441" transform="translate(18042.465 15859.297)"/><path id="直线_2795" stroke-width="3" d="M73.814 0H0" data-name="直线 2795" transform="translate(18618.357 16051.524)"/><path id="路径_2442" stroke-width="3" d="M622.647 175.007h.232l.231-.013.231-.02.23-.027.23-.036.228-.043.226-.052.224-.059.223-.066.218-.075.218-.082.214-.089.209-.1.208-.1.2-.111.2-.119.2-.125.19-.132.187-.138.18-.143.177-.151.171-.158.165-.161.16-.168.153-.174.148-.18.141-.182.136-.189.128-.194.121-.2.116-.2.107-.205.1-.209.093-.211.087-.217.078-.218.072-.222.063-.222.055-.225.047-.227.041-.227.032-.231.024-.231.016-.231.008-.232v-.231l-.008-.233-.016-.23-.024-.231-.032-.23-.041-.229-.047-.227-.055-.225-.063-.223-.072-.221-.078-.218-.087-.216-.093-.211-.1-.209-.107-.206-.116-.2-.121-.2-.128-.194-.136-.188-.141-.183-.148-.179-.153-.174-.16-.168-.165-.162-.171-.157-.177-.151-.18-.145-.187-.137-.19-.132-.2-.126-.2-.119-.2-.111-.208-.1-.209-.1-.214-.09-.218-.081-.218-.075-.223-.068-.224-.058-.226-.052-.228-.044-.23-.035-.23-.027-.231-.02-.231-.012h-.232" data-name="路径 2442" transform="translate(18021.223 15864.593)"/><path id="直线_2796" stroke-width="3" d="M25.508 0H0" data-name="直线 2796" transform="translate(18618.379 16026.176)"/><path id="路径_2443" stroke-width="3" d="M611.344 161.578h-.232l-.231.012-.231.02-.23.027-.23.035-.227.044-.227.052-.224.058-.221.068-.22.075-.217.081-.214.09-.21.1-.208.1-.2.111-.2.119-.2.126-.19.132-.187.137-.181.145-.175.151-.171.157-.165.162-.16.168-.153.174-.148.179-.141.183-.136.188-.129.194-.12.2-.116.2-.107.206-.1.209-.093.211-.087.216-.078.218-.071.221-.062.223-.056.225-.049.227-.039.229-.032.23-.025.231-.016.23-.008.233v.231l.008.232.016.231.025.231.032.231.039.227.049.227.056.225.062.222.071.222.078.218.087.217.093.211.1.209.107.205.116.2.12.2.129.194.136.189.141.182.148.18.153.174.16.168.165.161.171.158.175.151.181.143.187.138.19.132.2.125.2.119.2.111.208.1.21.1.214.089.217.082.22.075.221.066.224.059.227.052.227.043.23.036.23.027.231.02.231.013h.232" data-name="路径 2443" transform="translate(18007.049 15864.593)"/><path id="直线_2797" stroke-width="3" d="M0 0h25.508" data-name="直线 2797" transform="translate(18618.379 16039.592)"/><path id="直线_2741" stroke-width="3" d="M0 0h25.362" data-name="直线 2741" transform="translate(18666.783 16026.176)"/><path id="路径_2312" stroke-width="3" d="M649.659 161.578h.231l.232.012.231.02.231.027.227.035.228.044.227.052.223.058.223.068.22.075.216.081.214.09.21.1.208.1.2.111.2.119.2.126.192.132.185.137.182.145.176.151.169.157.167.162.158.168.154.174.148.179.142.183.135.188.129.194.122.2.114.2.108.206.1.209.094.211.086.216.078.218.07.221.064.223.055.225.048.227.039.229.032.23.023.231.016.23.009.233v.231l-.009.232-.016.231-.023.231-.032.231-.039.227-.048.227-.055.225-.064.222-.07.222-.078.218-.086.217-.094.211-.1.209-.108.205-.114.2-.122.2-.129.194-.135.189-.142.182-.148.18-.154.174-.158.168-.167.161-.169.158-.176.151-.182.143-.185.138-.192.132-.2.125-.2.119-.2.111-.208.1-.21.1-.214.089-.216.082-.22.075-.223.066-.223.059-.227.052-.228.043-.227.036-.231.027-.231.02-.232.013h-.231" data-name="路径 2312" transform="translate(18042.471 15864.593)"/><path id="直线_2742" stroke-width="3" d="M25.362 0H0" data-name="直线 2742" transform="translate(18666.783 16039.592)"/><path id="路径_2313" stroke-width="3" d="M638.438 175.007h-.232l-.232-.013-.231-.02-.231-.027-.228-.036-.228-.043-.227-.052-.224-.059-.223-.066-.22-.075-.217-.082-.213-.089-.21-.1-.207-.1-.2-.111-.2-.119-.195-.125-.192-.132-.185-.138-.182-.143-.176-.151-.171-.158-.164-.161-.161-.168-.154-.174-.147-.18-.142-.182-.134-.189-.129-.194-.121-.2-.115-.2-.109-.205-.1-.209-.094-.211-.086-.217-.078-.218-.07-.222-.064-.222-.056-.225-.048-.227-.039-.227-.032-.231-.023-.231-.016-.231-.009-.232v-.231l.009-.233.016-.23.023-.231.032-.23.039-.229.048-.227.056-.225.064-.223.07-.221.078-.218.086-.216.094-.211.1-.209.109-.206.115-.2.121-.2.129-.194.134-.188.142-.183.147-.179.154-.174.161-.168.164-.162.171-.157.176-.151.182-.145.185-.137.192-.132.195-.126.2-.119.2-.111.207-.1.21-.1.213-.09.217-.081.22-.075.223-.068.224-.058.227-.052.228-.044.228-.035.231-.027.231-.02.232-.012h.232" data-name="路径 2313" transform="translate(18028.361 15864.593)"/><path id="直线_2798" stroke-width="3" d="M18.923 0H0" data-name="直线 2798" transform="translate(18513.121 16075.031)"/><path id="路径_2444" stroke-width="3" d="M550.963 190.42h-.118l-.119-.007-.118-.011-.119-.015-.117-.019-.115-.023-.116-.026-.115-.031-.112-.035-.113-.039-.11-.043-.108-.046-.108-.05-.106-.054-.1-.058-.1-.061-.1-.065-.1-.068-.093-.072-.093-.075-.09-.078-.087-.08-.083-.085-.081-.087-.077-.089-.075-.092-.071-.094-.068-.1-.064-.1-.063-.1-.057-.1-.055-.1-.05-.107-.046-.109-.044-.11-.038-.112-.035-.113-.032-.114-.026-.116-.024-.117-.018-.117-.015-.117-.011-.118-.008-.119v-.119" data-name="路径 2444" transform="translate(17962.248 15884.612)"/><path id="路径_2445" stroke-width="3" d="M547.566 187.546v-.153l.007-.1.012-.266.006-.319v-.335" data-name="路径 2445" transform="translate(17962.248 15884.093)"/><path id="直线_2799" stroke-width="3" d="M.102 19.82 0 0" data-name="直线 2799" transform="translate(18509.762 16050.645)"/><path id="路径_2446" stroke-width="3" d="M548.735 176.476v-.187l-.005-.061-.007-.062-.008-.061-.01-.061-.01-.061-.017-.078-.018-.078-.02-.077-.023-.077-.026-.077-.026-.076-.03-.075-.031-.074-.034-.072-.036-.072-.038-.07-.039-.068-.044-.068-.044-.066-.046-.067-.047-.064-.051-.062-.052-.061-.054-.059-.056-.058-.057-.057-.058-.055-.06-.053-.062-.051-.062-.049-.064-.048-.067-.044-.066-.043-.068-.042-.069-.04-.071-.038-.072-.035-.072-.033-.074-.031-.074-.029-.076-.027-.077-.024-.077-.023-.076-.019-.078-.018-.069-.014-.069-.012-.069-.011-.07-.009-.069-.007-.07-.006h-.141" data-name="路径 2446" transform="translate(17961.027 15874.179)"/><path id="直线_2800" stroke-width="3" d="M19.884.159 0 0" data-name="直线 2800" transform="translate(18487.16 16047.781)"/><path id="路径_2447" stroke-width="3" d="M535.409 173.671h-.337l-.315.012-.138.007-.12.01-.053.006-.046.006-.042.006h-.093" data-name="路径 2447" transform="translate(17951.75 15874.11)"/><path id="路径_2448" stroke-width="3" d="M535.748 175.211h-.236l-.118-.012-.118-.015-.117-.019-.117-.022-.115-.027-.114-.031-.112-.034-.113-.039-.11-.043-.108-.046-.107-.051-.106-.054-.1-.057-.1-.061-.1-.065-.1-.067-.093-.071-.092-.075-.09-.077-.087-.082-.083-.084-.081-.085-.078-.089-.075-.092-.072-.095-.068-.1-.065-.1-.061-.1-.057-.1-.055-.1-.05-.107-.046-.109-.043-.111-.038-.111-.035-.114-.031-.114-.027-.116-.023-.116-.019-.116-.015-.118-.011-.119-.007-.118v-.119" data-name="路径 2448" transform="translate(17950.254 15872.65)"/><path id="直线_2801" stroke-width="3" d="M0 18.915V0" data-name="直线 2801" transform="translate(18482.605 16025.563)"/><path id="路径_2449" stroke-width="3" d="M532.351 162.736v-.227l.007-.078.009-.077.009-.078.012-.078.014-.079.017-.078.017-.08.02-.079.022-.078.024-.08.025-.079.029-.079.03-.078.033-.078.034-.077.037-.078.037-.077.041-.076.042-.075.046-.073.046-.074.049-.073.05-.07.053-.07.055-.067.057-.068.056-.065.06-.066.061-.062.063-.061.064-.059.067-.058.067-.056.068-.054.071-.053.07-.05.072-.049.073-.046.075-.045.075-.041.076-.041.077-.04.077-.035.079-.035.078-.031.078-.032.078-.026.079-.026.078-.024.08-.022.078-.019.08-.018.079-.016.079-.014.077-.012.079-.01.077-.008.077-.008h.228" data-name="路径 2449" transform="translate(17950.254 15862.837)"/><path id="路径_2450" stroke-width="3" d="M534.251 159.341h.066l.175.008.91.008" data-name="路径 2450" transform="translate(17951.75 15862.838)"/><path id="直线_2802" stroke-width="3" d="M0 .045 19.884 0" data-name="直线 2802" transform="translate(18487.16 16022.157)"/><path id="路径_2451" stroke-width="3" d="M546.017 160.527h.187l.062-.005.061-.007.061-.008.062-.01.061-.01.078-.017.078-.017.078-.021.077-.023.076-.025.075-.027.074-.028.074-.033.073-.032.071-.036.071-.037.068-.041.068-.041.066-.043.066-.046.063-.046.064-.051.061-.052.059-.054.058-.056.057-.056.055-.058.053-.06.051-.062.049-.062.049-.064.045-.067.044-.066.042-.069.041-.07.037-.07.036-.071.032-.073.032-.074.029-.074.027-.077.024-.076.024-.077.019-.079.019-.077.013-.069.012-.069.01-.069.01-.071.007-.07v-.211" data-name="路径 2451" transform="translate(17961.027 15861.632)"/><path id="直线_2803" stroke-width="3" d="M0 19.934.102 0" data-name="直线 2803" transform="translate(18509.762 15999.522)"/><path id="路径_2452" stroke-width="3" d="M547.616 147.16v-.335l-.007-.312-.011-.252-.007-.095v-.117" data-name="路径 2452" transform="translate(17962.248 15852.369)"/><path id="路径_2453" stroke-width="3" d="M547.566 147.529v-.12l.008-.117.011-.119.015-.118.017-.117.023-.116.027-.117.031-.114.036-.113.038-.113.043-.109.046-.109.051-.107.053-.106.058-.1.061-.1.064-.1.068-.1.07-.095.075-.092.079-.09.08-.087.084-.083.087-.081.089-.077.092-.075.095-.071.1-.068.1-.064.1-.061.1-.058.106-.053.107-.051.109-.047.111-.043.111-.038.114-.036.114-.031.115-.027.117-.021.117-.019.119-.015.118-.011.119-.005h.118" data-name="路径 2453" transform="translate(17962.248 15850.875)"/><path id="直线_2804" stroke-width="3" d="M0 0h18.923" data-name="直线 2804" transform="translate(18513.121 15995.01)"/><path id="路径_2454" stroke-width="3" d="M560.047 144.134h.119l.118.005.117.011.118.015.117.019.117.023.116.025.114.031.113.036.112.038.111.043.108.047.107.051.105.053.1.058.1.061.1.064.1.068.095.071.09.075.09.077.087.081.084.083.08.087.079.09.074.092.07.095.07.1.064.1.06.1.058.1.054.106.05.107.048.109.042.109.038.113.035.113.031.114.027.117.023.116.018.117.014.118.011.119.006.117v.12" data-name="路径 2454" transform="translate(17971.982 15850.875)"/><path id="路径_2455" stroke-width="3" d="M561.968 146.032v.12l-.008.095-.01.252-.007.312v.335" data-name="路径 2455" transform="translate(17973.455 15852.369)"/><path id="直线_2805" stroke-width="3" d="m0 0 .101 19.934" data-name="直线 2805" transform="translate(18535.375 15999.522)"/><path id="路径_2456" stroke-width="3" d="M561.975 157.809v.187l.005.061.007.063.009.062.01.061.01.061.017.078.017.079.02.077.023.078.026.076.027.076.03.076.031.072.034.074.036.071.037.07.04.07.042.068.044.066.046.065.048.066.05.062.052.061.055.059.055.058.057.057.059.055.059.053.063.051.063.049.063.048.067.045.067.043.068.042.069.04.07.036.072.035.072.035.073.029.075.03.076.027.076.024.078.022.077.02.078.018.068.014.069.013.069.009.07.01.069.006h.211" data-name="路径 2456" transform="translate(17973.5 15861.632)"/><path id="直线_2806" stroke-width="3" d="m0 0 19.886.045" data-name="直线 2806" transform="translate(18538.186 16022.157)"/><path id="路径_2457" stroke-width="3" d="m574.614 159.364.909-.008.176-.008h.065" data-name="路径 2457" transform="translate(17983.443 15862.838)"/><path id="路径_2458" stroke-width="3" d="M575.261 159.341h.118l.12.007.118.01.117.014.117.019.116.023.116.027.114.03.114.035.113.039.11.042.108.046.108.051.106.054.1.057.1.061.1.064.1.068.095.07.092.077.09.077.086.08.084.085.082.087.078.089.074.092.073.094.067.1.064.1.063.1.057.1.054.1.051.108.046.109.042.111.039.111.034.114.031.114.027.115.024.117.019.117.013.119.011.118.006.119v.117" data-name="路径 2458" transform="translate(17983.951 15862.837)"/><path id="直线_2807" stroke-width="3" d="M0 0v18.915" data-name="直线 2807" transform="translate(18562.605 16025.563)"/><path id="路径_2459" stroke-width="3" d="M578.658 171.817v.15l-.005.078-.007.078-.009.077-.009.077-.012.079-.014.079-.017.078-.018.079-.02.08-.022.08-.023.078-.025.079-.028.079-.03.078-.033.078-.034.077-.036.077-.039.077-.04.075-.043.076-.044.073-.046.073-.049.072-.051.071-.053.07-.054.068-.056.067-.058.066-.059.063-.061.063-.064.061-.064.059-.066.058-.066.056-.069.055-.069.053-.071.051-.073.049-.071.046-.075.044-.074.043-.076.041-.076.038-.078.037-.076.033-.08.033-.076.03-.08.029-.079.025-.079.024-.078.022-.08.02-.079.018-.079.016-.078.014-.078.013-.078.009-.078.008-.078.007h-.228" data-name="路径 2459" transform="translate(17983.951 15872.65)"/><path id="路径_2460" stroke-width="3" d="M575.771 173.749h-.091l-.041-.006-.047-.006-.054-.006-.121-.01-.138-.007-.315-.012h-.335" data-name="路径 2460" transform="translate(17983.443 15874.11)"/><path id="直线_2808" stroke-width="3" d="M19.886 0 0 .159" data-name="直线 2808" transform="translate(18538.186 16047.781)"/><path id="路径_2461" stroke-width="3" d="M564.692 173.76h-.185l-.063.005-.061.006-.061.009-.062.009-.061.01-.077.017-.079.019-.077.021-.077.022-.076.026-.075.027-.075.03-.073.031-.072.034-.072.036-.071.038-.069.04-.067.043-.067.044-.064.045-.064.049-.062.049-.063.052-.059.054-.058.054-.057.058-.056.058-.052.06-.052.06-.049.064-.049.064-.044.067-.044.066-.041.07-.042.069-.036.07-.036.072-.033.072-.031.073-.03.076-.027.075-.025.076-.022.078-.02.077-.019.077-.013.069-.012.069-.01.069-.009.07-.007.069v.21" data-name="路径 2461" transform="translate(17973.5 15874.179)"/><path id="直线_2809" stroke-width="3" d="M.101 0 0 19.82" data-name="直线 2809" transform="translate(18535.375 16050.645)"/><path id="路径_2462" stroke-width="3" d="M561.919 186.362v.337l.007.319.01.264.008.1v.151" data-name="路径 2462" transform="translate(17973.455 15884.093)"/><path id="路径_2463" stroke-width="3" d="M563.444 187.024v.153l-.005.075-.006.078-.01.077-.009.079-.012.078-.013.079-.017.079-.017.079-.02.078-.022.079-.024.08-.027.079-.027.078-.029.079-.033.077-.035.077-.036.078-.039.076-.041.076-.042.074-.044.075-.046.073-.048.071-.051.071-.053.07-.054.068-.055.067-.058.066-.059.065-.061.062-.062.061-.065.06-.066.058-.067.055-.069.054-.069.054-.072.05-.072.049-.074.046-.073.045-.074.042-.077.042-.076.038-.077.036-.077.035-.079.032-.078.029-.079.029-.079.025-.078.024-.078.022-.08.021-.079.018-.079.014-.078.015-.079.012-.077.009-.077.009-.078.007h-.227" data-name="路径 2463" transform="translate(17971.982 15884.612)"/><path id="路径_2464" stroke-width="3" d="M568.737 166.505v.215l-.007.217-.012.22-.018.219-.023.223-.028.222-.032.224-.04.226-.045.225-.05.227-.056.225-.063.226-.068.227-.073.225-.08.227-.086.224-.09.224-.1.221-.1.221-.11.218-.116.217-.122.214-.127.212-.134.209-.138.207-.145.2-.149.2-.156.2-.16.193-.165.187-.171.184-.175.181-.179.175-.184.171-.189.166-.193.16-.2.155-.2.151-.2.143-.208.139-.209.133-.211.126-.215.122-.217.115-.219.11-.22.1-.222.1-.222.092-.226.086-.225.08-.225.073-.226.068-.227.061-.227.056-.227.052-.225.043-.224.04-.224.034-.224.026-.221.023-.221.016-.218.012-.217.009h-.431l-.217-.009-.219-.012-.221-.016-.221-.023-.224-.026-.222-.034-.225-.04-.225-.043-.227-.052-.227-.056-.226-.061-.227-.068-.225-.073-.225-.08-.224-.086-.224-.092-.223-.1-.219-.1-.22-.11-.217-.115-.214-.122-.211-.126-.209-.133-.208-.139-.2-.143-.2-.151-.2-.155-.193-.16-.188-.166-.185-.171-.179-.175-.174-.181-.171-.184-.166-.187-.16-.193-.156-.2-.149-.2-.146-.2-.138-.207-.133-.209-.128-.212-.122-.214-.115-.217-.11-.218-.1-.221-.1-.221-.092-.224-.085-.224-.08-.227-.073-.225-.068-.227-.062-.226-.056-.225-.051-.227-.045-.225-.039-.226-.033-.224-.028-.222-.023-.223-.018-.219-.012-.22-.006-.217v-.215" data-name="路径 2464" transform="translate(17963.551 15868.47)"/><path id="路径_2465" stroke-width="3" d="m549.33 170.781.007-.339.018-.337.028-.338.042-.337.053-.333.065-.333.076-.329.088-.327.1-.325.11-.319.122-.316.132-.312.143-.307.154-.3.165-.3.174-.291.185-.283.194-.277.2-.271.212-.264.223-.255.23-.248.24-.239.248-.231.255-.223.263-.212.27-.2.277-.194.284-.184.29-.175.3-.165.3-.154.306-.142.312-.133.316-.12.321-.111.324-.1.327-.087.33-.076.332-.065.335-.053.336-.041.338-.029.339-.018.339-.006" data-name="路径 2465" transform="translate(17963.553 15864.203)"/><path id="路径_2466" stroke-width="3" d="m554.756 161.082.338.006.339.018.338.029.335.041.335.053.333.065.329.076.327.087.324.1.32.111.316.12.312.133.307.142.3.154.3.165.291.175.283.184.279.194.27.2.263.212.255.223.248.231.24.239.231.248.222.255.213.264.2.271.193.277.185.283.175.291.164.3.153.3.145.307.131.312.122.316.11.319.1.325.088.327.076.329.066.333.053.333.042.337.028.338.018.337.006.339" data-name="路径 2466" transform="translate(17967.82 15864.203)"/><path id="直线_2833" stroke-width="4" d="M.064 0 0 .002" data-name="直线 2833" transform="translate(18696.551 16137.418)"/><path id="路径_2522" stroke-width="4" d="m689.99 235.172 1.14-.55 1.3-.672 1.276-.711" data-name="路径 2522" transform="translate(18070.941 15920.959)"/><path id="路径_2523" stroke-width="4" d="m691.445 233.312.01.065.007.068v.267" data-name="路径 2523" transform="translate(18075.344 15921.016)"/><path id="路径_2512" stroke-width="4" d="m616.77 225.068.051-.078.056-.074.057-.073.059-.072.063-.069.065-.067.067-.065.069-.061.072-.059.073-.058.075-.054.077-.052.08-.049.081-.047.083-.044.083-.041.085-.038.088-.034.087-.033.088-.028.089-.025.091-.022.09-.02.092-.016.092-.014.092-.009.093-.007h.187" data-name="路径 2512" transform="translate(18016.602 15913.563)"/><path id="直线_2834" stroke-width="4" d="M0 0h61.038" data-name="直线 2834" transform="translate(18635.615 16137.393)"/><path id="直线_2810" stroke-width="4" d="M.082 4.554 0 0" data-name="直线 2810" transform="translate(18752.963 15950.741)"/><path id="直线_2811" stroke-width="4" d="M0 .029V0" data-name="直线 2811" transform="translate(18752.963 15950.713)"/><path id="路径_2467" stroke-width="4" d="M683.706 120.579v-.187l.007-.064.008-.062.011-.062.011-.064.012-.063.015-.062.015-.062.018-.061.019-.063.021-.061.022-.06.022-.06.024-.059.026-.06.028-.058.029-.059.03-.056.031-.056.033-.055.034-.054.035-.054.037-.052.036-.053.04-.051.039-.049.041-.048.041-.048.044-.046.043-.045.044-.043.044-.043.046-.041.046-.041.046-.038.047-.038.047-.035.047-.035.052-.036.052-.033.051-.033.053-.031.054-.029.054-.029.055-.028.055-.025.058-.027.059-.024.06-.024.062-.024.059-.02.061-.021.061-.018.062-.017.061-.015.062-.014.063-.013.062-.011.125-.019.126-.015.448-.034.448-.02 1.342-.039 1.816-.03 2.187-.021 2.421-.012h1.181" data-name="路径 2467" transform="translate(18069.248 15830.133)"/><path id="直线_2812" stroke-width="4" d="M0 0h40.131" data-name="直线 2812" transform="translate(18765.322 15947.897)"/><path id="路径_2468" stroke-width="4" d="m713.081 117.765 3.8.064 3.794.193 3.784.321 3.77.449 1.932.282 1.927.315 1.922.35 1.915.384 1.908.418 1.9.45 1.891.486 1.883.517 3.516 1.067 3.48 1.181 3.44 1.3 3.392 1.409" data-name="路径 2468" transform="translate(18092.266 15830.133)"/><path id="直线_2813" stroke-width="4" d="m0 0 .001.049" data-name="直线 2813" transform="translate(18860.871 15964.474)"/><path id="直线_2814" stroke-width="4" d="m0 0 .092 6.818" data-name="直线 2814" transform="translate(18860.873 15964.522)"/><path id="路径_2506" stroke-width="3" d="m617.544 219.554-.121.436-.11.439" data-name="路径 2506" transform="translate(18017.031 15910.171)"/><path id="路径_2508" stroke-width="3" d="m617.9 220.043-.185.443-.121.311-.115.317-.11.316-.1.32-.1.322-.09.322-.084.324-.077.325-.06.281-.054.28-.049.282-.044.285-.038.284-.031.285-.027.286-.02.285-.011.213-.007.214v.424l.007.214.011.212.016.212.02.211.019.158.02.144.023.132.023.12.023.108.025.1.024.084.011.038.019.056.008.024.009.022.01.022.009.022.01.022.012.02.012.022" data-name="路径 2508" transform="translate(18016.449 15910.557)"/><path id="直线_2832" stroke-width="3" d="M0 .874.231 0" data-name="直线 2832" transform="translate(18634.344 16129.725)"/><path id="路径_2469" stroke-width="3" d="m617.443 227.719.5-1.488.445-1.5.392-1.518.34-1.532.286-1.541.233-1.553.18-1.557.126-1.563.071-1.568.018-1.566-.036-1.569-.098-1.564" data-name="路径 2469" transform="translate(18017.131 15902.04)"/><path id="路径_2470" stroke-width="3" d="m658.353 227.717-.132-1.386-.174-1.381-.147-.966-.166-.963-.189-.958-.209-.955-.258-1.069-.285-1.063-.309-1.057-.335-1.049-.4-1.16-.433-1.15-.464-1.138-.494-1.125-.583-1.232-.62-1.215-.655-1.2-.69-1.177-.81-1.285-.851-1.258-.894-1.229-.934-1.2-.545-.667-.559-.655-.572-.645-.584-.635-.6-.622-.607-.611-.617-.6-.63-.588-.728-.652-.742-.638-.756-.622-.771-.6-.782-.589-.795-.571-.807-.555-.818-.536-.913-.567-.926-.547-.94-.526-.953-.5-.964-.479-.975-.455-.985-.431-.994-.408-1.067-.407-1.079-.378-1.088-.352-1.1-.323-1.1-.295-1.114-.266-1.117-.237-1.124-.209-1.158-.183-1.169-.152-1.17-.122-1.172-.09-1.174-.058-1.177-.028h-1.174l-1.174.036-1.163.066-1.164.1-1.161.129-1.157.159-1.153.188-1.148.22-1.141.25-1.132.277-1.071.295-1.065.321-1.056.347-1.049.374-1.038.4-1.029.426-1.015.451-1 .477-.911.458-.9.48-.89.5-.879.521-.867.54-.854.561-.841.579-.826.6-.726.546-.714.563-.7.577-.692.589-.679.605-.667.619-.654.63-.64.643-1.091 1.155-1.049 1.193-1.008 1.227-.964 1.262-.818 1.146-.781 1.171-.748 1.195-.708 1.217-.609 1.117-.578 1.134-.547 1.15-.514 1.164-.435 1.063-.411 1.074-.383 1.084-.355 1.093-.3.986-.275.993-.252 1-.229 1.005-.183.893-.167.9-.148.9-.131.9-.148 1.232-.114 1.235" data-name="路径 2470" transform="translate(17978.738 15883.547)"/><path id="路径_2471" stroke-width="3" d="m568.73 209.2-.086 1.29-.046 1.291-.01 1.291.026 1.293.063 1.29.1 1.288.136 1.285.173 1.281.208 1.275.245 1.268.281 1.261.316 1.25.351 1.241.386 1.231.424 1.218.457 1.2.492 1.191.527 1.176.561 1.161.594 1.143.627 1.125.658 1.107.69 1.087.72 1.068.75 1.046.781 1.024.81 1 .837.976.865.954.894.926.918.9.946.874" data-name="路径 2471" transform="translate(17978.699 15902.006)"/><path id="路径_2472" stroke-width="4" d="M744.129 127.034v.041" data-name="路径 2472" transform="translate(18116.74 15837.439)"/><path id="路径_2473" stroke-width="4" d="M526.086 127.1v-.089" data-name="路径 2473" transform="translate(17945.313 15837.419)"/><path id="路径_2474" stroke-width="4" d="M526.084 130.292v-.082l.007-.081.009-.082.012-.081.013-.081.016-.08.019-.08.02-.078.018-.06.019-.058.021-.058.021-.058.022-.057.024-.055.024-.056.026-.054.027-.053.027-.053.029-.052.031-.051.03-.05.033-.049.034-.049.034-.049.035-.047.035-.048.037-.046.039-.046.039-.045.041-.043.04-.042.042-.044.047-.043.047-.044.048-.042.051-.043.05-.04.052-.04.1-.077.186-.128.188-.123.19-.121.193-.117.455-.265.747-.436 1.474-.81 1.537-.8 1.509-.75 2.782-1.3.782-.346" data-name="路径 2474" transform="translate(17945.313 15834.182)"/><path id="路径_2475" stroke-width="4" d="m532.387 126.949 3.395-1.409 3.439-1.3 3.481-1.181 3.518-1.067 1.881-.517 1.891-.486 1.9-.45 1.909-.418 1.915-.384 1.922-.35 1.927-.315 1.931-.282 3.77-.449 3.785-.321 3.794-.193 3.8-.064" data-name="路径 2475" transform="translate(17950.281 15830.133)"/><path id="直线_2815" stroke-width="4" d="M0 0h40.131" data-name="直线 2815" transform="translate(18526.816 15947.897)"/><path id="路径_2476" stroke-width="4" d="m579.574 117.765 3.6.013 2.186.021 1.817.03 1.341.039.45.02.446.034.143.018.072.011.07.011.055.011.053.011.055.014.052.012.062.017.061.018.061.021.061.02.06.024.059.022.058.026.058.025.056.027.054.027.055.03.053.029.053.031.052.033.052.033.05.035.051.036.047.036.049.038.048.04.044.041.046.041.045.042.042.043.044.045.044.046.04.048.041.048.039.049.04.051.036.053.037.052.035.054.034.054.033.055.031.056.03.056.03.059.027.058.026.06.024.059.023.06.022.06.02.061.019.063.018.061.015.062.015.062.012.063.012.064.01.062.008.062.006.064.005.062v.125" data-name="路径 2476" transform="translate(17987.34 15830.133)"/><path id="直线_2816" stroke-width="4" d="M0 0v.029" data-name="直线 2816" transform="translate(18579.307 15950.713)"/><path id="直线_2817" stroke-width="4" d="m0 0 .052 4.217" data-name="直线 2817" transform="translate(18579.307 15950.741)"/><path id="路径_2477" stroke-width="3" d="m736.423 220.739-.006-.35-.012-.35-.022-.35-.031-.35-.038-.349-.046-.347-.054-.346-.062-.345-.095-.445-.109-.444-.122-.441-.136-.436-.151-.432-.162-.429-.177-.421-.188-.416-.2-.409-.214-.4-.227-.4-.24-.389-.253-.382-.263-.373-.274-.365-.285-.353-.3-.345-.307-.336-.318-.327-.328-.317-.338-.306-.346-.3-.356-.283-.364-.273-.372-.262-.38-.249-.388-.237-.4-.225-.4-.212-.408-.2-.414-.187-.42-.174-.424-.16-.429-.148-.434-.135-.439-.119-.442-.108-.445-.092-.446-.079-.449-.065-.451-.05-.452-.037-.455-.021-.455-.009-.455.006-.454.021-.454.035-.45.049-.449.062-.448.076-.445.092-.443.1-.439.119-.436.132-.43.146-.425.158-.419.173-.415.185-.41.2-.4.212-.4.224-.389.236-.382.248-.373.259-.365.272-.357.282-.347.294-.34.3-.328.317-.32.323-.308.335-.3.345-.287.353-.276.364-.265.372-.253.38-.242.388-.229.394-.216.4-.2.407-.19.415-.18.42-.163.426-.153.432-.137.437-.125.44-.11.443-.1.447-.066.351-.056.354-.049.354-.039.358-.031.356-.021.358-.014.357-.006.359" data-name="路径 2477" transform="translate(18087.811 15899.659)"/><path id="路径_2499" stroke-width="3" d="M707.322 214.314v.352l.012.351.022.35.028.35.038.35.047.349.054.347.063.345.093.448.107.447.123.442.137.439.149.434.163.429.177.423.189.416.2.41.216.4.228.4.24.39.251.383.265.373.275.366.287.356.3.347.308.337.317.328.329.318.338.307.349.3.355.285.365.273.372.262.38.25.389.238.4.227.4.213.408.2.415.188.42.174.423.16.429.148.434.133.438.121.44.107.445.092.448.078.448.064.451.05.452.036.453.024.454.008.454-.007.453-.02.451-.034.451-.049.45-.062.448-.077.444-.091.442-.1.438-.118.433-.133.431-.145.424-.159.421-.172.416-.186.409-.2.4-.211.4-.224.391-.238.381-.246.371-.26.366-.272.357-.283.349-.295.341-.307.329-.316.319-.327.309-.335.3-.345.288-.356.276-.365.267-.372.253-.382.241-.389.23-.4.218-.4.2-.408.19-.416.177-.422.166-.428.153-.433.136-.437.124-.442.11-.445.1-.447.065-.353.057-.355.047-.355.039-.356.031-.358.022-.358.013-.359v-.358" data-name="路径 2499" transform="translate(18087.811 15906.04)"/><path id="路径_2524" stroke-width="4" d="m581.477 234.8-.408-.26-.051-.049-.054-.052-.055-.057-.114-.123-.122-.138-.573-.694-.715-.879-.386-.461-.025-.03" data-name="路径 2524" transform="translate(17986.516 15919.617)"/><path id="路径_2517" stroke-width="3" d="m580.244 233.416-1.132-1.352-.721-.743-.743-.723-.762-.7" data-name="路径 2517" transform="translate(17985.229 15918.324)"/><path id="路径_2525" stroke-width="4" d="m691.606 233.194-.023.019-.02.018-.021.016-.018.016-.016.015-.007.009-.006.008-.007.007-.005.007-.005.006-.005.007-.006.007v.019" data-name="路径 2525" transform="translate(18075.342 15920.924)"/><path id="路径_2526" stroke-width="4" d="m696.292 238.227 2.385.837 2.409.769 2.432.712 2.452.646 2.352.549 2.368.482 2.379.419 2.391.35 2.408.283 2.414.218 2.419.15 2.423.087 2.56.022 2.559-.048 2.557-.117 2.551-.183 2.549-.251 2.542-.318 2.533-.381 2.522-.447 2.511-.511 2.5-.574 2.48-.638 2.464-.7 2.554-.8 2.533-.864 2.508-.932 2.482-1 2.457-1.062 2.428-1.124 2.4-1.188 2.366-1.249" data-name="路径 2526" transform="translate(18079.031 15919.484)"/><path id="路径_2478" stroke-width="4" d="m740.4 269.762 2.895-1.638 2.846-1.731 2.794-1.821 2.739-1.91 2.681-2 2.62-2.081 2.558-2.165 2.49-2.248 2.421-2.326 2.348-2.4 2.272-2.478 2.2-2.552 2.116-2.619 2.032-2.688 1.946-2.752 1.859-2.814 1.771-2.874 1.677-2.932 1.58-2.983 1.483-3.035 1.379-3.081 1.276-3.125 1.17-3.167 1.06-3.2.947-3.236.834-3.267.72-3.292.607-3.312.494-3.328.381-3.341.272-3.349.092-1.676.062-1.674" data-name="路径 2478" transform="translate(18113.801 15881.092)"/><path id="路径_2502" stroke-width="4" d="m771.971 194.054.029-1.684v-1.665l-.085-3.283-.182-3.227-.262-3.181-.334-3.154-.417-3.163-.5-3.2-.587-3.275" data-name="路径 2502" transform="translate(18136.85 15869.811)"/><path id="路径_2479" stroke-width="4" d="m814.22 204.88-.459-2.168-.506-2.157-.552-2.144-.6-2.133-.646-2.117-.69-2.1-.735-2.088-.779-2.073-.824-2.055-.868-2.036-.908-2.019-.953-2-.994-1.977-1.034-1.958-1.076-1.934-1.117-1.911-1.156-1.888-1.194-1.863-1.235-1.837-1.272-1.812-1.309-1.784-1.347-1.755-1.385-1.727-1.421-1.7-1.455-1.666-1.491-1.634-1.526-1.6-1.562-1.568-1.594-1.536-1.626-1.5-1.661-1.463-1.693-1.428-1.724-1.389-1.754-1.351-1.783-1.312-1.812-1.272-1.84-1.233-1.865-1.193-1.892-1.152-1.918-1.113-1.939-1.072-1.963-1.028-1.984-.987-2.005-.945-2.025-.9-2.042-.86-2.062-.816-2.08-.773-2.094-.729-2.11-.684-2.124-.64-2.136-.6-2.15-.55-2.161-.5-2.17-.457-2.18-.411-2.188-.364-2.2-.316-2.2-.269-2.207-.221-2.213-.172-2.217-.123-2.216-.073-2.22-.026" data-name="路径 2479" transform="translate(18092.266 15833.246)"/><path id="路径_2480" stroke-width="3" d="m685.518 197.313-.443.006-.448.015-.452.024-.454.037-.457.046-.46.056-.461.07-.464.08-.464.092-.466.1-.467.114-.466.128-.466.14-.466.151-.463.164-.464.177-.46.19-.458.2-.454.214-.451.226-.448.238-.442.25-.444.269-.431.274-.426.287-.42.3-.412.309-.4.32-.4.331-.389.341-.38.351-.371.362-.362.371-.351.38-.341.389-.331.4-.32.406-.309.411-.3.418-.287.426-.274.432-.264.438-.251.442-.237.447-.227.451-.214.454-.2.459-.19.46-.177.463-.164.463-.152.466-.139.465-.128.467-.116.467-.1.467-.091.463-.081.464-.068.461-.058.46-.046.457-.037.454-.024.453-.015.448-.005.443.005.445.015.449.024.452.037.453.046.457.058.46.068.463.081.463.091.464.1.467.116.466.128.466.139.466.152.465.164.465.177.462.19.46.2.459.214.454.227.452.237.447.251.442.264.438.274.432.287.426.3.417.309.413.32.406.331.4.341.389.351.38.362.371.371.36.38.352.389.342.4.331.4.32.412.308.42.3.426.285.431.275.439.263.442.25.448.239.451.227.454.213.458.2.46.19.464.176.463.165.466.151.466.138.466.128.467.114.466.1.464.091.464.08.461.069.46.056.457.046.454.037.452.024.448.015.443.006" data-name="路径 2480" transform="translate(18054.934 15892.677)"/><path id="路径_2481" stroke-width="3" d="m676.7 237.31.445-.006.448-.015.45-.024.455-.037.457-.046.46-.056.462-.069.464-.08.464-.091.466-.1.467-.114.467-.128.466-.138.466-.151.463-.165.463-.176.461-.19.458-.2.454-.213.452-.227.448-.239.442-.25.437-.263.432-.275.427-.285.419-.3.412-.308.4-.32.4-.331.388-.342.379-.352.372-.36.361-.371.352-.38.342-.389.331-.4.32-.406.309-.413.3-.417.288-.426.274-.432.263-.438.25-.442.239-.447.227-.452.212-.454.2-.459.189-.46.178-.462.164-.465.152-.465.139-.466.128-.466.115-.466.1-.467.09-.464.08-.463.07-.463.058-.46.046-.457.035-.453.026-.452.015-.449v-.888l-.015-.448-.026-.453-.035-.454-.046-.457-.058-.46-.07-.461-.08-.464-.09-.463-.1-.467-.115-.467-.128-.467-.139-.465-.152-.466-.164-.463-.178-.463-.189-.46-.2-.459-.212-.454-.227-.451-.239-.447-.25-.442-.263-.438-.274-.432-.288-.426-.3-.418-.309-.411-.32-.406-.331-.4-.342-.389-.352-.38-.361-.371-.372-.362-.379-.351-.388-.341-.4-.331-.4-.32-.412-.309-.419-.3-.427-.287-.432-.274-.437-.263-.442-.25-.448-.238-.452-.226-.454-.214-.458-.2-.461-.19-.463-.177-.463-.164-.466-.151-.466-.14-.467-.128-.467-.114-.466-.1-.464-.092-.464-.08-.462-.07-.46-.056-.457-.046-.455-.037-.45-.024-.448-.015-.445-.006" data-name="路径 2481" transform="translate(18063.732 15892.677)"/><path id="路径_2482" stroke-width="3" d="m641.357 209.087-.01.732-.026.731-.042.731-.058.73-.076.728-.091.726-.107.724-.122.72-.158.809-.177.8-.2.8-.219.8-.236.789-.257.784-.277.776-.294.768-.307.765-.332.754-.353.745-.371.736-.389.727-.405.717-.425.706-.442.7-.458.683-.475.672-.494.66-.509.649-.525.636-.541.622-.556.608-.569.594-.584.578-.6.565-.613.55-.628.534-.64.519-.654.5-.664.485-.676.468-.688.452-.7.435-.709.417-.722.4-.73.381-.74.364-.747.344-.757.325-.763.306-.772.288-.78.268-.785.248-.791.23-.8.21-.8.188-.8.17-.81.149-.813.129-.818.108-.82.088-.82.068-.824.048-.822.027-.824.007-.822-.015-.83-.043-.822-.055-.821-.075-.818-.1-.817-.117-.811-.137-.809-.156-.8-.177-.8-.2-.794-.216-.79-.237-.783-.256-.777-.276-.769-.295-.76-.314-.753-.333-.745-.351-.736-.369-.727-.389-.717-.405-.707-.425-.694-.44-.684-.459-.672-.475-.661-.49-.648-.509-.637-.525-.623-.54-.609-.557-.594-.57-.579-.584-.564-.6-.55-.614-.535-.628-.518-.64-.5-.652-.486-.666-.47-.677-.452-.686-.436-.7-.418-.71-.4-.72-.381-.731-.364-.739-.346-.749-.325-.757-.307-.763-.287-.771-.268-.779-.25-.787-.229-.791-.211-.8-.19-.8-.169-.805-.15-.809-.109-.684-.1-.686-.082-.689-.068-.689-.051-.692-.038-.691-.023-.692-.01-.693" data-name="路径 2482" transform="translate(17983.934 15901.92)"/><path id="路径_2483" stroke-width="3" d="m575.263 223.676.007-.732.022-.732.04-.732.055-.731.071-.73.088-.729.1-.726.12-.723.155-.81.175-.805.2-.8.213-.8.235-.792.254-.787.273-.779.293-.77.312-.763.332-.756.35-.749.369-.739.388-.729.405-.719.423-.709.44-.7.458-.686.474-.676.493-.663.509-.651.525-.638.539-.625.556-.61.57-.6.586-.582.6-.567.615-.552.628-.539.642-.521.653-.5.666-.489.677-.47.689-.454.7-.437.713-.42.721-.4.733-.384.742-.365.749-.346.759-.328.764-.307.775-.29.781-.27.788-.249.795-.231.8-.212.8-.189.809-.171.811-.15.815-.13.819-.109.822-.089.825-.067.825-.048.827-.026.825-.008.825.014.826.035.825.055.824.076.821.1.818.118.815.137.81.157.805.178.8.2.8.219.791.237.787.258.779.278.771.3.762.317.754.333.748.354.737.372.729.391.719.408.707.426.7.443.686.462.672.477.662.494.649.511.636.528.625.543.609.558.594.574.579.586.564.6.552.616.534.629.519.643.5.656.486.669.469.68.451.69.433.7.416.713.4.723.382.733.363.744.343.752.324.758.305.766.285.775.267.782.247.788.226.793.208.8.187.8.168.809.146.811.107.685.094.687.078.691.065.692.051.693.034.693.021.695.006.693" data-name="路径 2483" transform="translate(17983.934 15887.389)"/><path id="路径_2484" stroke-width="3" d="m593.515 197.313.444.006.448.015.451.024.454.037.457.046.46.056.462.07.463.08.465.092.466.1.466.114.466.128.467.14.465.151.464.164.464.177.46.19.459.2.454.214.451.226.447.238.442.25.438.263.431.274.427.287.418.3.413.309.4.32.4.331.389.341.38.351.371.362.362.371.352.38.341.389.331.4.322.406.308.411.3.418.286.426.274.432.264.438.251.442.239.447.225.451.215.454.2.459.19.46.176.463.165.463.151.466.14.465.127.467.116.467.1.467.092.463.08.464.068.461.058.46.046.457.037.454.024.453.015.448.006.443-.006.445-.015.449-.024.452-.037.453-.046.457-.058.46-.068.463-.08.463-.092.464-.1.467-.116.466-.127.466-.14.466-.151.465-.165.465-.176.462-.19.46-.2.459-.215.454-.225.452-.239.447-.251.442-.264.438-.274.432-.286.426-.3.417-.308.413-.322.406-.331.4-.341.389-.352.38-.362.371-.371.36-.38.352-.389.342-.4.331-.4.32-.413.308-.418.3-.427.285-.431.275-.438.263-.442.25-.447.239-.451.227-.454.213-.459.2-.46.19-.464.176-.464.165-.465.151-.467.138-.466.128-.466.114-.466.1-.465.091-.463.08-.462.069-.46.056-.457.046-.454.037-.451.024-.448.015-.444.006" data-name="路径 2484" transform="translate(17998.303 15892.677)"/><path id="路径_2485" stroke-width="3" d="m602.334 237.31-.443-.006-.449-.015-.451-.024-.454-.037-.457-.046-.46-.056-.463-.069-.462-.08-.466-.091-.466-.1-.467-.114-.467-.128-.466-.138-.465-.151-.464-.165-.463-.176-.461-.19-.457-.2-.455-.213-.452-.227-.448-.239-.442-.25-.437-.263-.433-.275-.424-.285-.421-.3-.411-.308-.406-.32-.4-.331-.387-.342-.38-.352-.372-.36-.361-.371-.351-.38-.341-.389-.331-.4-.319-.406-.31-.413-.3-.417-.286-.426-.275-.432-.264-.438-.25-.442-.239-.447-.226-.452-.213-.454-.2-.459-.188-.46-.177-.462-.165-.465-.152-.465-.14-.466-.128-.466-.115-.466-.1-.467-.092-.464-.08-.463-.069-.463-.058-.46-.046-.457-.035-.453-.026-.452-.014-.449-.005-.445.005-.443.014-.448.026-.453.035-.454.046-.457.058-.46.069-.461.08-.464.092-.463.1-.467.115-.467.128-.467.14-.465.152-.466.165-.463.177-.463.188-.46.2-.459.213-.454.226-.451.239-.447.25-.442.264-.438.275-.432.286-.426.3-.418.31-.411.319-.406.331-.4.341-.389.351-.38.361-.371.372-.362.38-.351.387-.341.4-.331.406-.32.411-.309.421-.3.424-.287.433-.274.437-.263.442-.25.448-.238.452-.226.455-.214.457-.2.461-.19.463-.177.464-.164.465-.151.466-.14.467-.128.467-.114.466-.1.466-.092.462-.08.463-.07.46-.056.457-.046.454-.037.451-.024.449-.015.443-.006" data-name="路径 2485" transform="translate(17989.504 15892.677)"/><path id="路径_2486" stroke-width="3" d="m740.989 227.717-.131-1.386-.174-1.381-.146-.966-.167-.963-.188-.958-.207-.955-.26-1.069-.285-1.063-.31-1.057-.335-1.049-.4-1.16-.433-1.15-.464-1.138-.494-1.125-.583-1.232-.62-1.215-.655-1.2-.69-1.177-.81-1.285-.852-1.258-.894-1.229-.932-1.2-.547-.667-.559-.655-.573-.645-.583-.635-.6-.622-.606-.611-.619-.6-.629-.588-.728-.652-.742-.638-.757-.622-.771-.6-.783-.589-.794-.571-.808-.555-.818-.536-.913-.567-.926-.547-.94-.526-.952-.5-.964-.479-.975-.455-.986-.431-.995-.408-1.067-.407-1.079-.378-1.088-.352-1.1-.323-1.105-.295-1.114-.266-1.118-.237-1.124-.209-1.158-.183-1.16-.152-1.169-.122-1.174-.09-1.175-.058-1.177-.028h-1.174l-1.174.036-1.163.066-1.164.1-1.161.129-1.156.159-1.153.188-1.148.22-1.141.25-1.131.277-1.071.295-1.065.321-1.056.347-1.049.374-1.039.4-1.029.426-1.016.451-1 .477-.911.458-.9.48-.89.5-.879.521-.866.54-.855.561-.841.579-.826.6-.724.546-.715.563-.7.577-.692.589-.678.605-.667.619-.655.63-.641.643-1.091 1.155-1.048 1.193-1.008 1.227-.964 1.262-.817 1.146-.783 1.171-.746 1.195-.71 1.217-.608 1.117-.578 1.134-.547 1.15-.513 1.164-.437 1.063-.41 1.074-.384 1.084-.355 1.093-.3.986-.274.993-.251 1-.23 1.005-.184.893-.167.9-.148.9-.13.9-.148 1.232-.114 1.235" data-name="路径 2486" transform="translate(18043.711 15883.547)"/><path id="路径_2514" stroke-width="4" d="M652.075 223.867v-.012" data-name="路径 2514" transform="translate(18044.375 15913.551)"/><path id="路径_2507" stroke-width="3" d="m652.678 219.554.12.436.112.439" data-name="路径 2507" transform="translate(18044.85 15910.171)"/><path id="路径_2509" stroke-width="3" d="m652.808 220.043.185.443.12.311.115.317.11.316.1.32.1.322.09.322.084.324.078.325.059.281.054.28.049.282.043.285.038.284.031.285.026.286.02.285.011.213.006.214v.424l-.005.214-.012.212-.015.212-.02.211-.019.158-.022.144-.022.132-.023.12-.024.108-.023.1-.024.084-.011.038-.019.056-.009.024-.008.022-.01.022-.01.022-.01.022-.012.02-.012.022" data-name="路径 2509" transform="translate(18044.951 15910.557)"/><path id="路径_2487" stroke-width="3" d="m653.819 227.719-.5-1.488-.444-1.5-.393-1.518-.339-1.532-.286-1.541-.233-1.553-.181-1.557-.125-1.563-.072-1.568-.018-1.566.036-1.569.092-1.565" data-name="路径 2487" transform="translate(18043.711 15902.04)"/><path id="路径_2527" stroke-width="4" d="m691.352 233.311 4.316 1.734 4.516 1.652" data-name="路径 2527" transform="translate(18075.266 15921.016)"/><path id="路径_2488" stroke-width="3" d="m707.931 209.2.084 1.288.048 1.291.011 1.292-.027 1.292-.063 1.29-.1 1.289-.136 1.285-.172 1.281-.209 1.275-.244 1.269-.281 1.26-.316 1.251-.351 1.241-.388 1.232-.422 1.218-.457 1.2-.492 1.191-.528 1.176-.56 1.161-.594 1.143-.626 1.126-.659 1.107-.689 1.086-.721 1.067-.751 1.046-.781 1.024-.81 1-.837.977-.866.954-.893.926-.918.9-.946.873" data-name="路径 2488" transform="translate(18076.742 15902.006)"/><path id="路径_2528" stroke-width="3" d="m690.147 234.58.05-.043.05-.049.054-.051.054-.057.115-.123.122-.14.574-.693.714-.879.411-.491.45-.518" data-name="路径 2528" transform="translate(18074.322 15919.616)"/><path id="路径_2518" stroke-width="3" d="m691.6 232.827.7-.763.721-.743.742-.723.764-.7" data-name="路径 2518" transform="translate(18075.463 15918.324)"/><path id="路径_2529" stroke-width="4" d="m690.028 233.55.065-.035.067-.034.067-.032.07-.031.07-.029.07-.027.073-.024.073-.024.073-.021.076-.019.075-.018.077-.015.076-.012.078-.01.078-.009.077-.006h.312l.078.005.078.007.076.009.077.011.074.014.076.017.075.018.073.02.073.021.071.024.07.024.069.027" data-name="路径 2529" transform="translate(18074.227 15920.927)"/><path id="路径_2489" stroke-width="4" d="m737.827 122.9 2.124.957 1.441.685 1.508.75 1.538.8 1.473.81 1.2.7.193.117.19.121.189.123.187.128.106.078.053.041.052.042.048.041.047.041.048.042.044.046.042.042.043.042.039.043.039.045.038.046.037.046.036.048.035.047.036.049.034.05.032.051.032.052.031.053.028.052.029.053.027.054.026.054.024.056.023.056.021.055.021.057.02.057.017.057.018.058.02.078.019.08.016.08.014.081.012.081.008.082.007.081v.082" data-name="路径 2489" transform="translate(18111.773 15834.182)"/><path id="路径_2515" stroke-width="4" d="m582.036 242.018.961.435.967.414.975.392.981.372.989.349.994.328 1 .307 1.005.286 1.009.263 1.015.243 1.017.221 1.021.2 1.024.178 1.029.156 1.029.135 1.031.114 1.033.093 1.034.072 1.035.049 1.033.028 1.034.007 1.033-.015 1.031-.035 1.031-.058 1.03-.079 1.025-.1 1.023-.122 1.02-.143 1.016-.165 1.012-.186 1.008-.209 1-.229 1.119-.282 1.111-.309 1.1-.336 1.095-.362 1.085-.387 1.077-.414 1.067-.437 1.057-.464 1.046-.487 1.034-.511 1.022-.536 1.011-.559 1-.584.984-.6.969-.629.956-.65.94-.674.926-.695.91-.717.893-.738.877-.759.859-.78.841-.8.824-.821.8-.84.783-.859.766-.879.745-.9.724-.916.7-.936.681-.952.66-.971" data-name="路径 2515" transform="translate(17989.26 15914.096)"/><path id="路径_2516" stroke-width="4" d="m715.558 242.018-.96.435-.968.414-.974.392-.982.371-.987.35-.995.328-1 .307-1 .286-1.01.263-1.014.243-1.017.221-1.022.2-1.024.177-1.027.157-1.029.135-1.031.114-1.034.093-1.034.072-1.034.049-1.034.028-1.034.007-1.034-.015-1.033-.035-1.03-.058-1.028-.079-1.027-.1-1.022-.122-1.02-.143-1.016-.165-1.012-.186-1.008-.207-1-.23-1.118-.282-1.112-.309-1.1-.335-1.094-.362-1.087-.389-1.076-.412-1.067-.439-1.057-.462-1.046-.488-1.034-.511-1.027-.531-1.009-.558-1-.583-.985-.6-.97-.63-.955-.651-.941-.673-.926-.7-.91-.716-.893-.738-.876-.76-.859-.779-.841-.8-.823-.82-.8-.841-.785-.859-.765-.879-.744-.9-.725-.917-.7-.935-.681-.953-.583-.859-.076-.112" data-name="路径 2516" transform="translate(18045.414 15914.096)"/></g></svg>