<svg width="16" height="16" viewBox="0 0 16 16" fill="none" xmlns="http://www.w3.org/2000/svg">
<g clip-path="url(#clip0_hefesto)">
<path d="M9.5 1.5C8.3 1.5 7.2 2.0 6.4 2.8L5.6 2.0C5.3 1.7 4.9 1.7 4.6 2.0L4.0 2.6C3.7 2.9 3.7 3.3 4.0 3.6L4.8 4.4C4.4 5.0 4.1 5.7 4.0 6.4L5.6 8.0L6.7 6.9C6.4 6.2 6.5 5.3 7.0 4.8C7.2 4.5 7.6 4.3 8.0 4.2L11.8 8.0L12.9 6.9L9.1 3.1C9.2 3.1 9.4 3.0 9.5 3.0C10.3 3.0 11.0 3.3 11.6 3.8C11.7 3.9 11.8 4.0 11.9 4.1L13.0 3.0C12.1 2.1 10.9 1.5 9.5 1.5Z" fill="currentColor"/>
<path d="M5.0 8.6L1.7 11.9C1.3 12.3 1.3 12.9 1.7 13.3L2.7 14.3C3.1 14.7 3.7 14.7 4.1 14.3L7.4 11.0L5.0 8.6ZM3.4 13.4C3.1 13.4 2.9 13.2 2.9 12.9C2.9 12.6 3.1 12.4 3.4 12.4C3.7 12.4 3.9 12.6 3.9 12.9C3.9 13.2 3.7 13.4 3.4 13.4Z" fill="currentColor"/>
</g>
<defs>
<clipPath id="clip0_hefesto">
<rect width="16" height="16" fill="white"/>
</clipPath>
</defs>
</svg>
